HIERARCHY
ROOT Hips
{
  OFFSET -0.312017 91.2428 1.25062
  CHANNELS 6 Xposition Yposition Zposition Zrotation Xrotation Yrotation
  JOINT Spine
  {
    OFFSET 0 9.9235 -1.2273
    CHANNELS 6 Xposition Yposition Zposition Zrotation Xrotation Yrotation
    JOINT Spine1
    {
      OFFSET -0.0001 11.6454 -1.4223
      CHANNELS 6 Xposition Yposition Zposition Zrotation Xrotation Yrotation
      JOINT Spine2
      {
        OFFSET 0.0001 13.3602 -1.6265
        CHANNELS 6 Xposition Yposition Zposition Zrotation Xrotation Yrotation
        JOINT Neck
        {
          OFFSET 0 15.0325 0.7929
          CHANNELS 6 Xposition Yposition Zposition Zrotation Xrotation Yrotation
          JOINT Head
          {
            OFFSET 0 10.3218 3.1424
            CHANNELS 6 Xposition Yposition Zposition Zrotation Xrotation Yrotation
            JOINT HeadTop_End
            {
              OFFSET 0.0002 18.4747 6.6364
              CHANNELS 6 Xposition Yposition Zposition Zrotation Xrotation Yrotation
              End Site
              {
                OFFSET 0 0 0
              }
            }
            JOINT LeftEye
            {
              OFFSET 2.9479 7.6817 9.1207
              CHANNELS 6 Xposition Yposition Zposition Zrotation Xrotation Yrotation
              End Site
              {
                OFFSET 0 0 0
              }
            }
            JOINT RightEye
            {
              OFFSET -2.9445 7.6817 9.1205
              CHANNELS 6 Xposition Yposition Zposition Zrotation Xrotation Yrotation
              End Site
              {
                OFFSET 0 0 0
              }
            }
          }
        }
        JOINT LeftShoulder
        {
          OFFSET 6.1058 9.1104 0.7056
          CHANNELS 6 Xposition Yposition Zposition Zrotation Xrotation Yrotation
          JOINT LeftArm
          {
            OFFSET 12.655 -0.2659 -2.6009
            CHANNELS 6 Xposition Yposition Zposition Zrotation Xrotation Yrotation
            JOINT LeftForeArm
            {
              OFFSET 27.4047 0 0
              CHANNELS 6 Xposition Yposition Zposition Zrotation Xrotation Yrotation
              JOINT LeftHand
              {
                OFFSET 27.6145 0 0
                CHANNELS 6 Xposition Yposition Zposition Zrotation Xrotation Yrotation
                JOINT LeftHandMiddle1
                {
                  OFFSET 12.7755 0 0
                  CHANNELS 6 Xposition Yposition Zposition Zrotation Xrotation Yrotation
                  JOINT LeftHandMiddle2
                  {
                    OFFSET 3.614 0 0
                    CHANNELS 6 Xposition Yposition Zposition Zrotation Xrotation Yrotation
                    JOINT LeftHandMiddle3
                    {
                      OFFSET 3.4598 0 0
                      CHANNELS 6 Xposition Yposition Zposition Zrotation Xrotation Yrotation
                      End Site
                      {
                        OFFSET 3.6802 0 0
                      }
                    }
                  }
                }
                JOINT LeftHandThumb1
                {
                  OFFSET 3.7888 -2.167 3.0031
                  CHANNELS 6 Xposition Yposition Zposition Zrotation Xrotation Yrotation
                  JOINT LeftHandThumb2
                  {
                    OFFSET 3.6754 -2.122 2.122
                    CHANNELS 6 Xposition Yposition Zposition Zrotation Xrotation Yrotation
                    JOINT LeftHandThumb3
                    {
                      OFFSET 3.3944 -1.9597 1.9598
                      CHANNELS 6 Xposition Yposition Zposition Zrotation Xrotation Yrotation
                      End Site
                      {
                        OFFSET 2.6794 -1.5469 1.5469
                      }
                    }
                  }
                }
                JOINT LeftHandIndex1
                {
                  OFFSET 12.2666 -0.2317 2.8221
                  CHANNELS 6 Xposition Yposition Zposition Zrotation Xrotation Yrotation
                  JOINT LeftHandIndex2
                  {
                    OFFSET 3.892 0 0
                    CHANNELS 6 Xposition Yposition Zposition Zrotation Xrotation Yrotation
                    JOINT LeftHandIndex3
                    {
                      OFFSET 3.4152 0 0
                      CHANNELS 6 Xposition Yposition Zposition Zrotation Xrotation Yrotation
                      End Site
                      {
                        OFFSET 3.078 0 0
                      }
                    }
                  }
                }
                JOINT LeftHandRing1
                {
                  OFFSET 12.147 0.0099 -2.2166
                  CHANNELS 6 Xposition Yposition Zposition Zrotation Xrotation Yrotation
                  JOINT LeftHandRing2
                  {
                    OFFSET 3.6012 0 0
                    CHANNELS 6 Xposition Yposition Zposition Zrotation Xrotation Yrotation
                    JOINT LeftHandRing3
                    {
                      OFFSET 3.3073 0 0
                      CHANNELS 6 Xposition Yposition Zposition Zrotation Xrotation Yrotation
                      End Site
                      {
                        OFFSET 3.6601 0 0
                      }
                    }
                  }
                }
                JOINT LeftHandPinky1
                {
                  OFFSET 10.9082 -0.2264 -4.7258
                  CHANNELS 6 Xposition Yposition Zposition Zrotation Xrotation Yrotation
                  JOINT LeftHandPinky2
                  {
                    OFFSET 4.1367 0 0
                    CHANNELS 6 Xposition Yposition Zposition Zrotation Xrotation Yrotation
                    JOINT LeftHandPinky3
                    {
                      OFFSET 2.5948 0 0
                      CHANNELS 6 Xposition Yposition Zposition Zrotation Xrotation Yrotation
                      End Site
                      {
                        OFFSET 2.9239 0 0
                      }
                    }
                  }
                }
              }
            }
          }
        }
        JOINT RightShoulder
        {
          OFFSET -6.1057 9.1105 0.7056
          CHANNELS 6 Xposition Yposition Zposition Zrotation Xrotation Yrotation
          JOINT RightArm
          {
            OFFSET -12.655 -0.266 -2.6009
            CHANNELS 6 Xposition Yposition Zposition Zrotation Xrotation Yrotation
            JOINT RightForeArm
            {
              OFFSET -27.4047 0 0
              CHANNELS 6 Xposition Yposition Zposition Zrotation Xrotation Yrotation
              JOINT RightHand
              {
                OFFSET -27.6145 0 0
                CHANNELS 6 Xposition Yposition Zposition Zrotation Xrotation Yrotation
                JOINT RightHandMiddle1
                {
                  OFFSET -12.7755 0 0
                  CHANNELS 6 Xposition Yposition Zposition Zrotation Xrotation Yrotation
                  JOINT RightHandMiddle2
                  {
                    OFFSET -3.614 0 0
                    CHANNELS 6 Xposition Yposition Zposition Zrotation Xrotation Yrotation
                    JOINT RightHandMiddle3
                    {
                      OFFSET -3.4598 0 0
                      CHANNELS 6 Xposition Yposition Zposition Zrotation Xrotation Yrotation
                      End Site
                      {
                        OFFSET -3.6802 0 0
                      }
                    }
                  }
                }
                JOINT RightHandThumb1
                {
                  OFFSET -3.7888 -2.167 3.0031
                  CHANNELS 6 Xposition Yposition Zposition Zrotation Xrotation Yrotation
                  JOINT RightHandThumb2
                  {
                    OFFSET -3.6754 -2.122 2.122
                    CHANNELS 6 Xposition Yposition Zposition Zrotation Xrotation Yrotation
                    JOINT RightHandThumb3
                    {
                      OFFSET -3.3944 -1.9597 1.9598
                      CHANNELS 6 Xposition Yposition Zposition Zrotation Xrotation Yrotation
                      End Site
                      {
                        OFFSET -2.6794 -1.5469 1.5469
                      }
                    }
                  }
                }
                JOINT RightHandIndex1
                {
                  OFFSET -12.2666 -0.2317 2.8221
                  CHANNELS 6 Xposition Yposition Zposition Zrotation Xrotation Yrotation
                  JOINT RightHandIndex2
                  {
                    OFFSET -3.892 0 0
                    CHANNELS 6 Xposition Yposition Zposition Zrotation Xrotation Yrotation
                    JOINT RightHandIndex3
                    {
                      OFFSET -3.4152 0 0
                      CHANNELS 6 Xposition Yposition Zposition Zrotation Xrotation Yrotation
                      End Site
                      {
                        OFFSET -3.078 0 0
                      }
                    }
                  }
                }
                JOINT RightHandRing1
                {
                  OFFSET -12.147 0.0099 -2.2166
                  CHANNELS 6 Xposition Yposition Zposition Zrotation Xrotation Yrotation
                  JOINT RightHandRing2
                  {
                    OFFSET -3.6012 0 0
                    CHANNELS 6 Xposition Yposition Zposition Zrotation Xrotation Yrotation
                    JOINT RightHandRing3
                    {
                      OFFSET -3.3073 0 0
                      CHANNELS 6 Xposition Yposition Zposition Zrotation Xrotation Yrotation
                      End Site
                      {
                        OFFSET 0 0 0
                      }
                    }
                  }
                }
                JOINT RightHandPinky1
                {
                  OFFSET -10.9082 -0.2264 -4.7258
                  CHANNELS 6 Xposition Yposition Zposition Zrotation Xrotation Yrotation
                  JOINT RightHandPinky2
                  {
                    OFFSET -4.1367 0 0
                    CHANNELS 6 Xposition Yposition Zposition Zrotation Xrotation Yrotation
                    JOINT RightHandPinky3
                    {
                      OFFSET -2.5948 0 0
                      CHANNELS 6 Xposition Yposition Zposition Zrotation Xrotation Yrotation
                      End Site
                      {
                        OFFSET -2.9239 0 0
                      }
                    }
                  }
                }
              }
            }
          }
        }
      }
    }
  }
  JOINT RightUpLeg
  {
    OFFSET -9.1245 -6.6564 -0.0554
    CHANNELS 6 Xposition Yposition Zposition Zrotation Xrotation Yrotation
    JOINT RightLeg
    {
      OFFSET -0.2447 -40.5954 -0.5145
      CHANNELS 6 Xposition Yposition Zposition Zrotation Xrotation Yrotation
      JOINT RightFoot
      {
        OFFSET 0.2447 -42.0479 -2.0602
        CHANNELS 6 Xposition Yposition Zposition Zrotation Xrotation Yrotation
        JOINT RightToeBase
        {
          OFFSET -0.3734 -10.4922 12.6407
          CHANNELS 6 Xposition Yposition Zposition Zrotation Xrotation Yrotation
          End Site
          {
            OFFSET 0 0 9.9925
          }
        }
      }
    }
  }
  JOINT LeftUpLeg
  {
    OFFSET 9.1245 -6.6564 -0.0554
    CHANNELS 6 Xposition Yposition Zposition Zrotation Xrotation Yrotation
    JOINT LeftLeg
    {
      OFFSET 0.2447 -40.5954 -0.517
      CHANNELS 6 Xposition Yposition Zposition Zrotation Xrotation Yrotation
      JOINT LeftFoot
      {
        OFFSET -0.2447 -42.048 -2.0576
        CHANNELS 6 Xposition Yposition Zposition Zrotation Xrotation Yrotation
        JOINT LeftToeBase
        {
          OFFSET 0.3734 -10.4922 12.6407
          CHANNELS 6 Xposition Yposition Zposition Zrotation Xrotation Yrotation
          End Site
          {
            OFFSET 0 0 9.9925
          }
        }
      }
    }
  }
}
MOTION
Frames:	4
Frame Time:	0.0166667
-2.87845 88.7397 100.326 -0.71861 29.1914 -0.718362 0 9.9235 -1.2273 -6.26139 18.472 -2.59289 -0.0001 11.6454 -1.4223 -2.99785 12.647 -0.779908 0.0001 13.3602 -1.6265 -2.916 12.6622 -0.780108 0 15.0325 0.7929 1.83883 -12.7454 -0.176437 0 10.3218 3.1424 6.04541 -17.963 0.641458 0.0002 18.4747 6.6364 3.97569e-016 6.36111e-015 9.93923e-016 2.9479 7.6817 9.1207 3.97569e-016 6.36111e-015 9.93923e-016 -2.9445 7.6817 9.1205 3.97569e-016 6.36111e-015 9.93923e-016 6.1058 9.1104 0.7056 -0.249963 2.49311 -20.4337 12.655 -0.2659 -2.6009 -18.3877 -46.4077 -40.452 27.4047 0 -2.84217e-014 -1.27182e-005 6.2923e-006 -39.8455 27.6145 0 0 18.0225 4.99211 -21.4538 12.7755 0 0 -38.3776 -2.68987 5.73402 3.614 0 0 -51.3963 -2.21023 4.59102 3.4598 0 0 -30.6205 -0.818832 2.99044 3.7888 -2.167 3.0031 -10.0295 3.50776 -4.04424 3.6754 -2.122 2.122 2.39184 9.46574 28.7559 3.3944 -1.9597 1.9598 16.7316 0.590507 18.652 12.2666 -0.2317 2.8221 -16.8654 8.5093 -1.82106 3.892 0 -3.55271e-015 -61.1678 -3.04384 5.14792 3.4152 -2.84217e-014 -8.88178e-016 6.52088 -0.0379719 -0.666481 12.147 0.0099 -2.2166 -55.5619 -4.44733 11.5938 3.6012 0 3.55271e-015 -31.4611 -0.863298 3.06433 3.3073 2.84217e-014 7.10543e-015 -54.5989 -2.47283 4.78908 10.9082 -0.2264 -4.7258 -46.1705 -7.79123 17.69 4.1367 0 -7.10543e-015 -31.4858 -0.86462 3.06647 2.5948 0 0 -54.6159 -2.47424 4.7901 -6.1057 9.1105 0.7056 4.34165 1.56779 5.8512 -12.655 -0.266 -2.6009 45.9837 -4.07498 19.5556 -27.4047 2.84217e-014 -1.42109e-014 1.26325e-005 -3.22428e-006 2.62114 -27.6145 0 -7.10543e-015 -3.09777 16.2766 23.5448 -12.7755 1.42109e-014 0 29.1639 -1.64253 1.22967 -3.614 2.84217e-014 0 55.7812 -2.04349 -3.85994 -3.4598 7.10543e-015 0 17.5258 -0.216558 -1.40478 -3.7888 -2.167 3.0031 -0.365126 -10.2193 9.53618 -3.6754 -2.122 2.122 -2.88976 10.2013 -31.7051 -3.3944 -1.9597 1.9598 -16.7083 11.7578 -40.0484 -12.2666 -0.2317 2.8221 25.5908 -0.622932 5.10355 -3.892 0 0 40.0272 -1.09344 -3.00133 -3.4152 1.06581e-014 0 41.2741 -1.1596 -3.07845 -12.147 0.0099 -2.2166 29.7221 -1.70613 -4.32183 -3.6012 0 7.10543e-015 56.6324 -2.10117 -3.89858 -3.3073 0 0 43.5699 -1.28586 -3.21664 -10.9082 -0.2264 -4.7258 43.1011 -13.1702 -16.3976 -4.1367 7.10543e-015 0 36.9677 -0.938216 -2.80618 -2.5948 0 0 50.7773 -1.71652 -3.61593 -9.1245 -6.6564 -0.0554 -51.4163 -64.7995 -53.8465 -0.2447 -40.5954 -0.5145 3.04644 43.8967 1.0322 0.2447 -42.0479 -2.0602 -0.341495 12.7012 -27.3804 -0.3734 -10.4922 12.6407 -7.59796e-006 -1.76677 2.35565e-005 9.1245 -6.6564 -0.0554 7.41969 -67.4722 20.3944 0.2447 -40.5954 -0.517 6.44113 52.0487 -6.65775 -0.2447 -42.048 -2.0576 3.90789 -14.1127 7.9037 0.3734 -10.4922 12.6407 2.00127e-006 -6.44404 1.95288e-005 
-3.13539 89.392 102.636 -0.331173 27.4365 -1.28609 -4.44089e-016 9.9235 -1.2273 -6.41668 17.7817 -2.8061 -0.0001 11.6454 -1.4223 -2.78169 12.0625 -1.01192 0.0001 13.3602 -1.6265 -2.67136 12.084 -1.0277 -7.10543e-015 15.0325 0.7929 1.76179 -12.7349 0.025475 0 10.3218 3.1424 5.40442 -15.1102 1.4287 0.0002 18.4747 6.6364 -5.96354e-016 -9.54166e-015 1.59028e-015 2.9479 7.6817 9.1207 -5.96354e-016 -9.54166e-015 1.59028e-015 -2.9445 7.6817 9.1205 -5.96354e-016 -9.54166e-015 1.59028e-015 6.1058 9.1104 0.7056 0.527614 2.25004 -19.8375 12.655 -0.2659 -2.6009 -17.1439 -44.1159 -36.8031 27.4047 0 0 1.01497e-005 -1.13509e-006 -41.1557 27.6145 0 0 19.2661 4.3699 -23.3488 12.7755 -1.42109e-014 -3.55271e-015 -36.7329 -2.53178 5.70532 3.614 0 0 -54.2106 -2.4404 4.76585 3.4598 -2.84217e-014 0 -32.7498 -0.933529 3.17631 3.7888 -2.167 3.0031 -9.53879 3.28987 -4.71087 3.6754 -2.122 2.122 2.39184 9.46574 28.7559 3.3944 -1.9597 1.9598 16.9006 1.24065 19.9898 12.2666 -0.2317 2.8221 -15.0575 8.66248 -1.89965 3.892 0 3.55271e-015 -62.4348 -3.15851 5.20948 3.4152 0 -1.77636e-015 5.10834 -0.023307 -0.522551 12.147 0.0099 -2.2166 -54.8945 -4.3768 11.3519 3.6012 -5.68434e-014 -7.10543e-015 -35.8111 -1.11037 3.4358 3.3073 -2.84217e-014 0 -56.919 -2.66975 4.92325 10.9082 -0.2264 -4.7258 -46.782 -8.31669 17.8105 4.1367 -2.84217e-014 7.10543e-015 -36.0601 -1.12539 3.45648 2.5948 2.84217e-014 7.10543e-015 -57.2898 -2.70173 4.94395 -6.1057 9.1105 0.7056 3.88081 1.52994 5.8068 -12.655 -0.266 -2.6009 45.5423 -4.15462 17.2101 -27.4047 0 1.42109e-014 -1.51017e-005 9.96907e-006 2.12434 -27.6145 -2.84217e-014 -7.10543e-015 7.25495 21.2394 17.9382 -12.7755 2.84217e-014 -7.10543e-015 29.8773 -1.69658 1.15542 -3.614 0 0 61.0102 -2.40652 -4.08349 -3.4598 -1.42109e-014 -7.10543e-015 18.9876 -0.253844 -1.51785 -3.7888 -2.167 3.0031 0.0755551 -9.824 9.61263 -3.6754 -2.122 2.122 -2.88976 10.2013 -31.7051 -3.3944 -1.9597 1.9598 -16.7083 11.7578 -40.0484 -12.2666 -0.2317 2.8221 27.9415 -0.587832 5.44402 -3.892 0 1.42109e-014 45.3436 -1.38713 -3.31986 -3.4152 7.10543e-015 0 41.8516 -1.19085 -3.11366 -12.147 0.0099 -2.2166 33.1773 -1.97236 -4.49295 -3.6012 -7.10543e-015 7.10543e-015 62.7219 -2.52961 -4.14936 -3.3073 -1.42109e-014 1.42109e-014 48.4042 -1.5692 -3.49047 -10.9082 -0.2264 -4.7258 46.6372 -14.1638 -15.8531 -4.1367 7.10543e-015 0 42.504 -1.22655 -3.15309 -2.5948 0 -1.42109e-014 57.6589 -2.1715 -3.94401 -9.1245 -6.6564 -0.0554 -45.8333 -62.2125 -48.7612 -0.2447 -40.5954 -0.5145 2.83782 39.2398 0.863567 0.2447 -42.0479 -2.0602 1.66539 14.877 -26.9257 -0.3734 -10.4922 12.6407 7.34504e-006 -1.11147 -3.05913e-005 9.1245 -6.6564 -0.0554 6.5028 -63.4894 19.3754 0.2447 -40.5954 -0.517 6.38072 51.6125 -6.22386 -0.2447 -42.048 -2.0576 3.22329 -15.8886 7.83451 0.3734 -10.4922 12.6407 -3.48974e-006 -6.79791 5.91445e-006 
-3.40787 90.0551 105.033 0.0587442 25.5565 -1.78275 -8.88178e-016 9.9235 -1.2273 -6.53281 17.0071 -2.98995 -0.0001 11.6454 -1.4223 -2.56485 11.4165 -1.23068 0.0001 13.3602 -1.6265 -2.4334 11.4448 -1.25793 0 15.0325 0.7929 1.69077 -12.7475 0.246406 -3.55271e-015 10.3218 3.1424 4.51595 -11.8342 2.18535 0.0002 18.4747 6.6364 -0 0 9.93923e-016 2.9479 7.6817 9.1207 -0 0 9.93923e-016 -2.9445 7.6817 9.1205 -0 0 9.93923e-016 6.1058 9.1104 0.7056 1.12825 2.09583 -19.2303 12.655 -0.2659 -2.6009 -15.9241 -39.6405 -32.6691 27.4047 0 1.42109e-014 -1.1853e-007 -1.21738e-005 -42.3842 27.6145 0 0 19.978 4.50774 -22.5582 12.7755 1.42109e-014 4.44089e-015 -34.78 -2.34768 5.66033 3.614 0 0 -56.8431 -2.66323 4.91897 3.4598 0 -1.77636e-015 -34.8456 -1.05312 3.35498 3.7888 -2.167 3.0031 -8.99552 3.03628 -5.44544 3.6754 -2.122 2.122 2.39184 9.46574 28.7559 3.3944 -1.9597 1.9598 17.0447 1.85105 21.2374 12.2666 -0.2317 2.8221 -13.1102 8.79116 -1.96094 3.892 0 -3.55271e-015 -63.5463 -3.26023 5.2614 3.4152 0 0 3.72498 -0.0123958 -0.381255 12.147 0.0099 -2.2166 -53.7643 -4.25607 11.115 3.6012 0 3.55271e-015 -40.1165 -1.38207 3.78406 3.3073 0 -7.10543e-015 -58.7234 -2.82659 5.02206 10.9082 -0.2264 -4.7258 -47.0933 -8.85901 17.9786 4.1367 0 0 -40.5731 -1.41241 3.8198 2.5948 0 3.55271e-015 -59.7592 -2.91799 5.07652 -6.1057 9.1105 0.7056 3.34393 1.47626 5.75851 -12.655 -0.266 -2.6009 45.2731 -4.33812 14.1009 -27.4047 2.84217e-014 1.42109e-014 8.16352e-006 1.1068e-005 2.66998 -27.6145 0 -1.42109e-014 16.3999 24.9217 12.887 -12.7755 0 0 29.9997 -1.70653 1.06155 -3.614 -7.10543e-015 1.42109e-014 65.2517 -2.71497 -4.23994 -3.4598 0 7.10543e-015 20.2177 -0.287455 -1.6122 -3.7888 -2.167 3.0031 0.594683 -9.35733 9.68688 -3.6754 -2.122 2.122 -2.88976 10.2013 -31.7051 -3.3944 -1.9597 1.9598 -16.7083 11.7578 -40.0484 -12.2666 -0.2317 2.8221 29.8378 -0.493128 5.79145 -3.892 7.10543e-015 7.10543e-015 50.0136 -1.66857 -3.57621 -3.4152 0 -1.42109e-014 41.7768 -1.18678 -3.10913 -12.147 0.0099 -2.2166 36.1396 -2.20852 -4.62668 -3.6012 7.10543e-015 7.10543e-015 68.0231 -2.92242 -4.32965 -3.3073 1.42109e-014 -1.42109e-014 53.274 -1.877 -3.74126 -10.9082 -0.2264 -4.7258 49.8909 -15.0418 -15.2987 -4.1367 -7.10543e-015 0 47.8298 -1.53437 -3.45921 -2.5948 0 1.42109e-014 64.431 -2.65439 -4.21146 -9.1245 -6.6564 -0.0554 -41.3868 -59.0983 -44.8053 -0.2447 -40.5954 -0.5145 2.71899 35.9352 0.606212 0.2447 -42.0479 -2.0602 3.61986 15.9797 -26.351 -0.3734 -10.4922 12.6407 0.00215139 -0.709571 6.07597e-005 9.1245 -6.6564 -0.0554 5.48647 -59.1674 18.2737 0.2447 -40.5954 -0.517 6.28192 50.8538 -6.14658 -0.2447 -42.048 -2.0576 2.62001 -17.5473 8.17119 0.3734 -10.4922 12.6407 1.37499e-007 -7.09752 9.22252e-006 
-3.69098 90.8859 107.683 0.422689 23.6207 -2.2724 8.88178e-016 9.9235 -1.2273 -6.57495 16.139 -3.10755 -0.0001 11.6454 -1.4223 -2.35912 10.7175 -1.43543 0.0001 13.3602 -1.6265 -2.2176 10.7524 -1.47217 3.55271e-015 15.0325 0.7929 1.62715 -11.988 0.48928 -3.55271e-015 10.3218 3.1424 3.58986 -8.20909 3.00515 0.0002 18.4747 6.6364 -1.19271e-015 9.54166e-015 5.96354e-016 2.9479 7.6817 9.1207 -1.19271e-015 9.54166e-015 5.96354e-016 -2.9445 7.6817 9.1205 -1.19271e-015 9.54166e-015 5.96354e-016 6.1058 9.1104 0.7056 1.55365 1.98231 -18.4437 12.655 -0.2659 -2.6009 -14.7611 -34.3145 -26.7156 27.4047 0 0 2.37151e-008 4.95403e-006 -44.384 27.6145 0 7.10543e-015 18.2821 4.86585 -21.9463 12.7755 0 3.55271e-015 -32.5687 -2.14422 5.59803 3.614 0 3.55271e-015 -59.2744 -2.8751 5.05124 3.4598 0 -5.32907e-015 -36.8806 -1.17543 3.5242 3.7888 -2.167 3.0031 -8.41101 2.7488 -6.23153 3.6754 -2.122 2.122 2.39184 9.46574 28.7559 3.3944 -1.9597 1.9598 17.1661 2.41767 22.3892 12.2666 -0.2317 2.8221 -11.0655 8.88449 -2.00207 3.892 2.84217e-014 -3.55271e-015 -64.5011 -3.34837 5.30444 3.4152 2.84217e-014 0 2.38999 -0.0051065 -0.244738 12.147 0.0099 -2.2166 -52.2199 -4.09112 10.8869 3.6012 0 0 -44.329 -1.67255 4.10425 3.3073 0 -3.55271e-015 -60.0278 -2.94186 5.09036 10.9082 -0.2264 -4.7258 -47.1221 -9.41318 18.1844 4.1367 0 0 -44.9753 -1.71917 4.15148 2.5948 -2.84217e-014 3.55271e-015 -61.6661 -3.08878 5.17245 -6.1057 9.1105 0.7056 2.73101 1.40981 5.70686 -12.655 -0.266 -2.6009 44.2737 -4.58795 10.7314 -27.4047 0 0 9.4357e-006 1.12581e-005 3.40822 -27.6145 0 0 25.7971 27.5788 5.48453 -12.7755 0 0 29.5178 -1.67108 0.955907 -3.614 7.10543e-015 2.13163e-014 68.2941 -2.94291 -4.33787 -3.4598 -1.42109e-014 -2.84217e-014 20.9678 -0.308948 -1.66938 -3.7888 -2.167 3.0031 1.17191 -8.83665 9.75723 -3.6754 -2.122 2.122 -2.88976 10.2013 -31.7051 -3.3944 -1.9597 1.9598 -16.7083 11.7578 -40.0484 -12.2666 -0.2317 2.8221 31.1838 -0.349806 6.14064 -3.892 -1.42109e-014 -7.10543e-015 53.7765 -1.90996 -3.76563 -3.4152 0 7.10543e-015 41.0392 -1.14703 -3.06403 -12.147 0.0099 -2.2166 38.4903 -2.40066 -4.72402 -3.6012 -8.88178e-015 0 71.7355 -3.20657 -4.4339 -3.3073 -1.42109e-014 0 57.8526 -2.18483 -3.95246 -10.9082 -0.2264 -4.7258 52.5045 -15.7199 -14.8178 -4.1367 7.10543e-015 -1.42109e-014 52.6813 -1.83845 -3.71213 -2.5948 1.42109e-014 -1.42109e-014 70.6095 -3.11969 -4.40423 -9.1245 -6.6564 -0.0554 -37.6116 -55.6479 -41.0166 -0.2447 -40.5954 -0.5145 2.65088 34.1053 -1.39569 0.2447 -42.0479 -2.0602 5.34364 15.8385 -24.2567 -0.3734 -10.4922 12.6407 2.34659 -1.6761 0.0117439 9.1245 -6.6564 -0.0554 4.40887 -54.1926 17.1801 0.2447 -40.5954 -0.517 6.09432 49.2778 -5.59767 -0.2447 -42.048 -2.0576 1.86123 -19.0165 8.09886 0.3734 -10.4922 12.6407 2.46939e-006 -7.29628 6.6117e-006 
